<svg width="281" height="13" viewBox="0 0 281 13" fill="none" xmlns="http://www.w3.org/2000/svg">
<path d="M0.696 12V0.799999H11.816C12.456 0.799999 13.032 0.863999 13.544 0.992C14.056 1.12 14.4933 1.312 14.856 1.568C15.2293 1.81333 15.512 2.11733 15.704 2.48C15.9067 2.832 16.008 3.232 16.008 3.68C16.008 3.98933 15.9547 4.28267 15.848 4.56C15.752 4.83733 15.592 5.09333 15.368 5.328C15.1547 5.56267 14.8827 5.77067 14.552 5.952C14.3707 6.048 14.1733 6.13867 13.96 6.224C14.3867 6.33067 14.76 6.46933 15.08 6.64C15.5493 6.90667 15.9013 7.232 16.136 7.616C16.3707 8 16.488 8.43733 16.488 8.928C16.488 9.568 16.3173 10.1173 15.976 10.576C15.6347 11.0347 15.144 11.3867 14.504 11.632C13.864 11.8773 13.0907 12 12.184 12H0.696ZM4.168 7.552V9.648H11.368C11.6987 9.648 11.9707 9.61067 12.184 9.536C12.3973 9.46133 12.5573 9.34933 12.664 9.2C12.7707 9.04 12.824 8.84267 12.824 8.608C12.824 8.37333 12.7707 8.176 12.664 8.016C12.5573 7.856 12.3973 7.73867 12.184 7.664C11.9707 7.58933 11.704 7.552 11.384 7.552H4.168ZM4.168 3.152V5.184H11.096C11.3307 5.184 11.528 5.16267 11.688 5.12C11.8587 5.07733 11.9973 5.01867 12.104 4.944C12.2213 4.85867 12.3067 4.752 12.36 4.624C12.4133 4.496 12.44 4.34667 12.44 4.176C12.44 3.94133 12.392 3.74933 12.296 3.6C12.2 3.45067 12.0507 3.33867 11.848 3.264C11.6453 3.18933 11.3947 3.152 11.096 3.152H4.168ZM22.684 12H19.196V0.799999H22.684V8.192L31.708 0.799999H35.196V12H31.708V4.608L22.684 12ZM43.3226 12V3.52H37.3386V0.799999H52.8426V3.52H46.8586V12H43.3226ZM55.0085 12V0.799999H64.9765C65.7445 0.799999 66.4378 0.895999 67.0565 1.088C67.6752 1.28 68.1978 1.55733 68.6245 1.92C69.0618 2.28267 69.3925 2.72533 69.6165 3.248C69.8512 3.76 69.9685 4.34133 69.9685 4.992C69.9685 5.856 69.7658 6.60267 69.3605 7.232C68.9552 7.85067 68.3738 8.33067 67.6165 8.672C66.8698 9.00267 65.9685 9.168 64.9125 9.168H58.5445V12H55.0085ZM58.5445 3.488V6.48H64.3525C64.8112 6.48 65.1845 6.42667 65.4725 6.32C65.7712 6.20267 65.9898 6.03733 66.1285 5.824C66.2778 5.6 66.3525 5.328 66.3525 5.008C66.3525 4.656 66.2778 4.37333 66.1285 4.16C65.9898 3.936 65.7712 3.77067 65.4725 3.664C65.1845 3.54667 64.8112 3.488 64.3525 3.488H58.5445ZM75.8871 12H72.3991V0.799999H75.8871V8.192L84.9111 0.799999H88.3991V12H84.9111V4.608L75.8871 12ZM91.7898 12V0.799999H95.3258V4.912H104.558V0.799999H108.11V12H104.558V7.632H95.3258V12H91.7898ZM124.373 12L123.077 9.984H115.029L113.733 12H109.812L117.301 0.799999H120.949L128.437 12H124.373ZM121.445 7.456L119.061 3.728L116.661 7.456H121.445ZM129.878 12V9.088H133.462V12H129.878Z" fill="#292522"/>
<path d="M136.587 12V0.799999H150.763V3.408H139.995V4.976H147.611C148.453 4.976 149.179 5.12 149.787 5.408C150.395 5.68533 150.864 6.08533 151.195 6.608C151.525 7.13067 151.691 7.76 151.691 8.496C151.691 9.02933 151.595 9.51467 151.403 9.952C151.221 10.3787 150.949 10.7467 150.587 11.056C150.235 11.3653 149.803 11.6 149.291 11.76C148.789 11.92 148.224 12 147.595 12H136.587ZM139.995 7.504V9.472H147.035C147.301 9.472 147.52 9.44 147.691 9.376C147.861 9.30133 147.989 9.18933 148.075 9.04C148.171 8.89067 148.219 8.70933 148.219 8.496C148.219 8.26133 148.171 8.07467 148.075 7.936C147.989 7.79733 147.861 7.69067 147.691 7.616C147.52 7.54133 147.301 7.504 147.035 7.504H139.995ZM154.368 12V0.799999H164.336C165.104 0.799999 165.797 0.895999 166.416 1.088C167.035 1.28 167.557 1.55733 167.984 1.92C168.421 2.28267 168.752 2.72533 168.976 3.248C169.211 3.76 169.328 4.34133 169.328 4.992C169.328 5.856 169.125 6.60267 168.72 7.232C168.315 7.85067 167.733 8.33067 166.976 8.672C166.229 9.00267 165.328 9.168 164.272 9.168H157.904V12H154.368ZM157.904 3.488V6.48H163.712C164.171 6.48 164.544 6.42667 164.832 6.32C165.131 6.20267 165.349 6.03733 165.488 5.824C165.637 5.6 165.712 5.328 165.712 5.008C165.712 4.656 165.637 4.37333 165.488 4.16C165.349 3.936 165.131 3.77067 164.832 3.664C164.544 3.54667 164.171 3.488 163.712 3.488H157.904ZM173.735 12L176.247 8.736L169.591 0.799999H173.767L178.247 6.128L182.295 0.799999H186.343L177.863 12H173.735ZM186.455 6.4C186.455 5.67467 186.578 5.008 186.823 4.4C187.079 3.792 187.447 3.25333 187.927 2.784C188.418 2.31467 189.015 1.92 189.719 1.6C190.434 1.26933 191.25 1.01867 192.167 0.848C193.084 0.677333 194.098 0.591999 195.207 0.591999C196.732 0.591999 198.055 0.741332 199.175 1.04C200.295 1.328 201.207 1.76 201.911 2.336C202.615 2.912 203.09 3.62667 203.335 4.48L199.591 5.216C199.452 4.78933 199.202 4.43733 198.839 4.16C198.487 3.872 198.007 3.65867 197.399 3.52C196.802 3.38133 196.071 3.312 195.207 3.312C194.503 3.312 193.874 3.35467 193.319 3.44C192.764 3.51467 192.284 3.63733 191.879 3.808C191.474 3.968 191.132 4.17067 190.855 4.416C190.588 4.66133 190.391 4.94933 190.263 5.28C190.135 5.61067 190.071 5.984 190.071 6.4C190.071 6.82667 190.135 7.20533 190.263 7.536C190.391 7.856 190.588 8.13867 190.855 8.384C191.132 8.62933 191.474 8.83733 191.879 9.008C192.284 9.168 192.759 9.29067 193.303 9.376C193.858 9.45067 194.492 9.488 195.207 9.488C196.092 9.488 196.839 9.41867 197.447 9.28C198.055 9.13067 198.535 8.912 198.887 8.624C199.25 8.32533 199.49 7.95733 199.607 7.52L203.303 8.224C203.058 9.10933 202.588 9.85067 201.895 10.448C201.202 11.0347 200.295 11.4773 199.175 11.776C198.055 12.064 196.732 12.208 195.207 12.208C194.268 12.208 193.399 12.1493 192.599 12.032C191.81 11.9147 191.09 11.744 190.439 11.52C189.788 11.2853 189.212 11.0027 188.711 10.672C188.22 10.3413 187.804 9.96267 187.463 9.536C187.132 9.09867 186.882 8.61867 186.711 8.096C186.54 7.57333 186.455 7.008 186.455 6.4ZM205.712 12V0.799999H209.248V4.912H218.48V0.799999H222.032V12H218.48V7.632H209.248V12H205.712ZM228.918 12H225.43V0.799999H228.918V8.192L237.942 0.799999H241.43V12H237.942V4.608L228.918 12ZM244.821 12V0.799999H248.341V5.472L255.717 0.799999H260.997L252.453 6.048L261.237 12H255.589L248.341 7.088V12H244.821ZM275.951 12L274.655 9.984H266.607L265.311 12H261.391L268.879 0.799999H272.527L280.015 12H275.951ZM273.023 7.456L270.639 3.728L268.239 7.456H273.023Z" fill="#EC3621"/>
</svg>
